# xmcd
#
# Track frame offsets:
#	150
#	20929
#	46119
#	68285
#	89644
#	113492
#	135574
#	159362
#	178321
#	202682
#	229420
#	252293
#	273240
#	295352
#	314852
#
# Disc length: 4557 seconds
#
# Revision: 2881395774
# Processed by: cddbd v1.5.2PL0 Copyright (c) Steve Scherf et al.
# Submitted via: EZCDAudioConverter 8.0.2.1
#
DISCID=d611cb0f
DTITLE=Nguyễn Ngọc Anh - Đóa Hoa Nở Muộn
DYEAR=2011
DGENRE=Contemporary Pop
TTITLE0=Nguyễn Ngọc Anh - Phút giây ban đầu
TTITLE1=Nguyễn Ngọc Anh - Đóa Hoa Nở Muộn
TTITLE2=Nguyễn Ngọc Anh - Mong một ngày anh nói
TTITLE3=Nguyễn Ngọc Anh - Chỉ có mình em thôi
TTITLE4=Nguyễn Ngọc Anh - Đêm mưa
TTITLE5=Nguyễn Ngọc Anh - Mùa thu
TTITLE6=Nguyễn Ngọc Anh - Bốn mùa trong anh
TTITLE7=Nguyễn Ngọc Anh - Anh đến
TTITLE8=Nguyễn Ngọc Anh - Trăng dưới chân mình
TTITLE9=Nguyễn Ngọc Anh - Sẽ mãi yêu anh
TTITLE10=Nguyễn Ngọc Anh - Bí mật Eva 
TTITLE11=Soundtrack - Phút giây ban đầu
TTITLE12=Soundtrack - Mùa thu
TTITLE13=Soundtrack - Bốn mùa trong anh
TTITLE14=Soundtrack - Sẽ mãi yêu anh
EXTD=
EXTT0=
EXTT1=
EXTT2=
EXTT3=
EXTT4=
EXTT5=
EXTT6=
EXTT7=
EXTT8=
EXTT9=
EXTT10=
EXTT11=
EXTT12=
EXTT13=
EXTT14=
PLAYORDER=
